<?xml version="1.0" encoding="iso-8859-1"?>
<!-- Generator: Adobe Illustrator 18.0.0, SVG Export Plug-In . SVG Version: 6.00 Build 0)  -->
<!DOCTYPE svg PUBLIC "-//W3C//DTD SVG 1.1//EN" "http://www.w3.org/Graphics/SVG/1.1/DTD/svg11.dtd">
<svg version="1.1" id="Capa_1" xmlns="http://www.w3.org/2000/svg" xmlns:xlink="http://www.w3.org/1999/xlink" x="0px" y="0px"
	 viewBox="0 0 482.974 482.974" style="enable-background:new 0 0 482.974 482.974;" xml:space="preserve">
<g>
	<g>
		<path d="M297.322,84.451c-2.398-2.532-2.748-6.391-0.822-9.303c16.46-24.971,44.149-39.879,74.059-39.879h30.942
			c10.505,0,10.505-15.902,0-15.902c-29.584,0-83.238-6.111-118.28,47.023c-1.646,2.501-4.915,3.378-7.593,2.027
			c-21.493-10.863-45.968-11.275-68.284,0c-2.678,1.35-5.939,0.48-7.593-2.027c-33.366-50.586-81.964-47.023-118.28-47.023
			c-10.505,0-10.505,15.902,0,15.902h30.942c48.886,0,81.359,40.641,73.237,49.182c-17.502,18.448-21.19,37.208-21.19,59.757
			c46.821-30.795,107.138-30.857,154.052,0C318.513,121.977,315.103,103.187,297.322,84.451z"/>
	</g>
	<g>
		<path d="M129.013,177.659C80.585,133.625,88.226,135.791,8.179,162.09c-15.056,4.946-7.407,27.611,7.439,22.657l49.826-16.368
			c8.121-2.664,17.082-0.746,23.395,4.985c53.026,48.203,31.796,27.247,28.349,78.649c-0.52,7.779-6.981,13.837-14.776,13.837
			c-15.592,0-32.278,0-69.642,0c-15.786,0-15.786,23.853,0,23.853c109.661,0,73.509-9.131,91.941,53.84
			c1.064,3.611-2.112,7.105-5.831,6.353c-44.189-8.861-56.457,33.636-80.737,79.315c-7.407,13.93,13.65,25.127,21.058,11.198
			l29.242-55.013c11.693-21.959,45.975-12.3,59.057,8.541c9.987,15.902,42.195,59.135,66.256,68.826
			c9.475,3.813,19.777-3.152,19.777-13.363V179.716c0-24.497-25.833-40.391-47.66-29.514
			C150.251,168.007,145.631,192.769,129.013,177.659z"/>
	</g>
	<g>
		<path d="M474.793,162.09c-76.311-25.073-70.41-30.259-120.834,15.568c-6.159,5.599-15.654,5.203-21.331-0.886
			c-49.95-53.552-83.191-23.278-83.191,2.943v269.685c0,16.888,23.301,22.362,47.66-6.809c20.685-24.771,28.621-33.132,38.38-48.662
			c13.31-21.198,47.652-29.933,59.051-8.533l29.242,55.013c7.377,13.875,28.527,2.864,21.058-11.198l-29.242-55.012
			c-10.055-18.908-31.78-28.311-51.494-24.303c-3.712,0.744-6.895-2.734-5.831-6.353c18.278-62.435-14.56-53.84,91.941-53.84
			c6.585,0,11.927-5.341,11.927-11.927c0-6.585-5.341-11.927-11.927-11.927c-37.48,0-54.159,0-69.79,0
			c-7.679,0-14.1-5.863-14.776-13.511c-2.772-31.494-13.929-40.377,1.158-54.112c44.771-40.703,29.149-36.945,100.561-13.48
			C482.286,189.717,489.801,167.028,474.793,162.09z"/>
	</g>
</g>
<g>
</g>
<g>
</g>
<g>
</g>
<g>
</g>
<g>
</g>
<g>
</g>
<g>
</g>
<g>
</g>
<g>
</g>
<g>
</g>
<g>
</g>
<g>
</g>
<g>
</g>
<g>
</g>
<g>
</g>
</svg>
